<?xml version="1.0" standalone="no"?>
<!DOCTYPE svg PUBLIC "-//W3C//DTD SVG 20010904//EN"
 "http://www.w3.org/TR/2001/REC-SVG-20010904/DTD/svg10.dtd">
<svg version="1.0" xmlns="http://www.w3.org/2000/svg"
 width="800.000000pt" height="800.000000pt" viewBox="0 0 800.000000 800.000000"
 preserveAspectRatio="xMidYMid meet">
<metadata>
Created by potrace 1.16, written by Peter Selinger 2001-2019
</metadata>
<g transform="translate(0.000000,800.000000) scale(0.100000,-0.100000)"
fill="#000000" stroke="none">
<path d="M5375 5854 c-625 -51 -1074 -185 -1327 -396 l-48 -40 -47 42 c-144
127 -465 257 -777 315 -283 52 -478 69 -786 67 -157 0 -307 -5 -335 -9 l-50
-8 3 -925 c2 -509 3 -1185 3 -1502 l-1 -577 293 6 c310 6 464 -2 712 -38 392
-56 701 -164 906 -314 49 -36 91 -65 93 -65 3 0 43 29 91 65 194 147 513 261
889 319 247 39 407 48 725 45 l294 -4 -6 1055 c-4 580 -7 1256 -7 1501 l0 447
-27 6 c-34 7 -529 15 -598 10z m461 -168 c1 0 3 -603 5 -1339 l4 -1338 -245
-4 c-555 -9 -941 -82 -1334 -250 -62 -27 -102 -39 -103 -32 -1 7 -4 595 -6
1307 l-4 1295 35 33 c41 39 264 150 377 187 185 61 386 102 608 126 190 19
648 30 663 15z m-2941 -31 c351 -41 660 -135 877 -266 36 -22 69 -48 73 -57 4
-9 9 -603 12 -1319 l6 -1303 -99 41 c-140 59 -273 103 -411 138 -286 71 -465
92 -854 98 l-316 5 -6 157 c-4 86 -7 691 -7 1345 l0 1189 298 -6 c163 -3 356
-13 427 -22z"/>
<path d="M5035 5254 c-185 -28 -310 -67 -459 -141 -157 -79 -183 -102 -165
-150 16 -43 43 -38 202 40 264 131 338 147 689 156 150 3 261 10 266 16 22 23
23 54 3 74 -20 20 -32 21 -233 20 -126 -1 -250 -7 -303 -15z"/>
<path d="M5160 4820 c-219 -16 -404 -66 -594 -161 -132 -66 -156 -84 -156
-118 0 -33 16 -51 47 -51 12 0 91 33 175 74 165 80 213 97 327 121 93 19 327
36 485 34 104 -1 121 1 133 17 18 25 16 48 -5 67 -22 20 -244 29 -412 17z"/>
<path d="M5139 4370 c-120 -11 -247 -36 -359 -72 -107 -33 -306 -128 -345
-164 -41 -38 -29 -94 21 -94 12 0 91 34 175 75 250 121 350 143 702 152 238 6
257 10 257 51 0 32 -18 45 -72 53 -66 9 -265 9 -379 -1z"/>
<path d="M2463 5330 c-33 -14 -41 -59 -15 -80 18 -15 56 -18 279 -23 351 -7
428 -24 690 -156 123 -61 159 -71 181 -49 18 18 15 63 -5 80 -41 36 -218 120
-329 157 -185 61 -275 73 -544 77 -134 2 -245 0 -257 -6z"/>
<path d="M2451 4871 c-26 -26 -27 -45 -1 -71 19 -19 33 -20 236 -20 345 0 460
-24 723 -151 79 -38 152 -69 161 -69 19 0 33 14 43 43 22 61 -257 199 -513
254 -100 22 -149 26 -371 30 -251 5 -257 5 -278 -16z"/>
<path d="M2538 4442 c-42 -4 -81 -11 -86 -17 -19 -19 -22 -51 -8 -70 13 -18
29 -20 243 -21 346 -2 451 -24 715 -151 165 -79 189 -83 210 -38 16 35 -2 55
-87 104 -156 90 -325 147 -520 176 -117 17 -357 26 -467 17z"/>
<path d="M2520 3991 c-30 -3 -61 -10 -67 -14 -17 -11 -17 -62 0 -75 8 -7 82
-12 198 -13 206 -2 328 -11 439 -35 103 -21 141 -36 319 -121 158 -75 181 -80
202 -42 14 27 3 54 -29 78 -49 34 -225 118 -306 145 -207 69 -532 102 -756 77z"/>
<path d="M2500 3541 c-50 -10 -60 -18 -60 -50 0 -49 10 -51 212 -51 356 0 491
-27 748 -151 166 -79 171 -81 195 -65 31 20 33 58 5 84 -33 30 -207 117 -301
150 -108 38 -254 69 -388 82 -114 11 -356 12 -411 1z"/>
<path d="M6268 5613 c-14 -9 -36 -34 -47 -54 l-22 -38 10 -1548 c5 -851 8
-1550 6 -1551 -2 -2 -32 7 -67 21 -128 52 -475 127 -672 146 -140 14 -379 14
-504 0 -292 -31 -616 -138 -769 -253 -103 -77 -114 -115 -46 -157 86 -53 164
-44 336 42 297 149 541 209 857 209 294 0 530 -51 820 -177 179 -78 241 -74
295 18 20 34 20 49 17 1639 -4 1568 -4 1606 -23 1647 -32 67 -127 95 -191 56z"/>
<path d="M1580 5597 c-13 -7 -35 -28 -48 -47 l-24 -35 6 -1590 c8 -1720 6
-1663 61 -1715 18 -17 40 -25 78 -28 48 -4 67 1 168 46 295 131 502 180 796
189 333 11 586 -44 888 -193 197 -97 281 -105 366 -35 45 38 35 68 -39 126
-159 125 -464 229 -781 265 -151 18 -492 8 -646 -19 -220 -37 -469 -100 -559
-140 -27 -11 -51 -20 -52 -18 -2 2 -4 694 -4 1538 0 1003 -4 1547 -10 1571 -6
20 -26 50 -46 67 -28 25 -43 31 -82 31 -26 0 -58 -6 -72 -13z"/>
</g>
</svg>
