<?xml version="1.0" standalone="no"?>
<!DOCTYPE svg PUBLIC "-//W3C//DTD SVG 20010904//EN"
 "http://www.w3.org/TR/2001/REC-SVG-20010904/DTD/svg10.dtd">
<svg version="1.0" xmlns="http://www.w3.org/2000/svg"
 width="800.000000pt" height="800.000000pt" viewBox="0 0 800.000000 800.000000"
 preserveAspectRatio="xMidYMid meet">
<metadata>
Created by potrace 1.16, written by Peter Selinger 2001-2019
</metadata>
<g transform="translate(0.000000,800.000000) scale(0.100000,-0.100000)"
fill="#000000" stroke="none">
<path d="M2821 5989 c-144 -28 -301 -153 -366 -290 -91 -193 -70 -386 62 -560
l50 -66 -126 -5 c-148 -6 -207 -25 -291 -91 -65 -51 -124 -146 -140 -222 -7
-35 -10 -252 -8 -651 3 -570 4 -601 23 -647 41 -100 139 -197 235 -234 39 -15
95 -18 428 -21 210 -2 382 -5 382 -8 0 -3 -24 -35 -53 -72 -30 -37 -204 -256
-389 -488 -184 -231 -340 -430 -347 -441 -6 -12 -11 -40 -11 -63 0 -95 99
-157 187 -117 17 7 169 190 402 482 206 259 411 516 455 572 93 117 122 138
172 128 32 -5 74 -55 474 -558 242 -304 455 -569 474 -589 55 -59 125 -63 185
-12 41 35 57 87 39 136 -7 21 -184 252 -406 530 l-394 493 384 5 c372 5 385 6
441 28 133 54 234 192 246 337 3 41 8 76 11 77 3 0 106 -50 230 -112 124 -62
254 -124 290 -137 170 -66 364 -5 467 146 69 100 68 94 68 601 0 454 0 455
-23 513 -33 81 -116 168 -201 210 -62 30 -73 32 -172 32 l-106 0 -277 -137
c-153 -76 -279 -138 -280 -138 -2 0 -5 35 -8 78 -5 95 -35 165 -102 239 -85
94 -195 133 -374 133 l-96 0 31 33 c46 47 101 143 123 216 36 115 23 278 -31
383 -62 121 -172 218 -299 265 -64 24 -90 28 -180 28 -90 0 -116 -4 -180 -28
-172 -63 -305 -214 -341 -387 l-12 -55 -13 55 c-67 288 -343 466 -633 409z
m225 -283 c98 -46 162 -156 151 -262 -18 -174 -186 -284 -349 -228 -105 35
-178 137 -178 249 0 193 202 322 376 241z m1036 14 c99 -28 181 -139 182 -248
0 -76 -18 -126 -67 -180 -62 -66 -108 -87 -197 -87 -89 0 -135 21 -197 87 -75
82 -89 194 -37 295 60 117 185 169 316 133z m-547 -509 c16 -29 47 -73 68 -97
l39 -44 -177 0 -177 0 46 50 c55 62 102 153 118 231 l12 58 21 -72 c11 -40 34
-96 50 -126z m1066 -434 c72 -48 70 -27 67 -652 -3 -622 -1 -603 -70 -638 -31
-17 -103 -18 -1145 -15 l-1113 3 -32 33 -33 32 -3 583 c-2 570 -2 583 18 615
40 64 -23 61 1181 62 l1096 0 34 -23z m1046 -152 c12 -3 36 -22 52 -41 l31
-35 0 -412 c0 -396 -1 -413 -20 -445 -21 -35 -72 -62 -114 -62 -27 0 -646 304
-658 324 -4 6 -8 90 -8 186 l0 175 318 157 c174 87 324 159 332 162 15 4 27 3
67 -9z"/>
</g>
</svg>
